<mxfile host="app.diagrams.net" modified="2024-06-15T20:07:39.788Z" agent="Mozilla/5.0 (Macintosh; Intel Mac OS X 10_15_7) AppleWebKit/537.36 (KHTML, like Gecko) Chrome/125.0.0.0 Safari/537.36" version="24.4.13" etag="dLD4Uw-qZCynwDKcEA-5" type="github">
  <diagram name="Page-1" id="1liMBI6N1g0CpqzXjWBm">
    <mxGraphModel>
      <root>
        <mxCell id="0" />
        <mxCell id="1" parent="0" />
      </root>
    </mxGraphModel>
  </diagram>
</mxfile>
